<svg width="237" height="48" viewBox="0 0 237 48" fill="none" xmlns="http://www.w3.org/2000/svg">
<path fill-rule="evenodd" clip-rule="evenodd" d="M48 24C48 37.2548 37.2548 48 24 48C10.7452 48 0 37.2548 0 24C0 10.7452 10.7452 0 24 0C37.2548 0 48 10.7452 48 24ZM36 24C36 30.6274 30.6274 36 24 36C17.3726 36 12 30.6274 12 24C12 17.3726 17.3726 12 24 12C30.6274 12 36 17.3726 36 24ZM24 32C28.4183 32 32 28.4183 32 24C32 19.5817 28.4183 16 24 16C19.5817 16 16 19.5817 16 24C16 28.4183 19.5817 32 24 32Z" fill="white"/>
<path d="M58.592 36V12.864H74.48L74.464 16.8H63.28V22.416H72.992V26.272H63.248V32.016L74.64 32.032V36H58.592ZM87.5635 36.32C85.4088 36.32 83.5475 35.8187 81.9795 34.816C80.4115 33.8133 79.2008 32.4053 78.3475 30.592C77.5048 28.7787 77.0835 26.6613 77.0835 24.24C77.0835 21.808 77.5048 19.7227 78.3475 17.984C79.1902 16.2347 80.3955 14.8907 81.9635 13.952C83.5315 13.0133 85.3982 12.544 87.5635 12.544C89.3022 12.544 90.8488 12.896 92.2035 13.6C93.5688 14.2933 94.6675 15.2427 95.4995 16.448C96.3422 17.6533 96.8382 19.0133 96.9875 20.528H92.0915C91.9422 19.728 91.6702 19.0187 91.2755 18.4C90.8808 17.7707 90.3635 17.28 89.7235 16.928C89.0835 16.5653 88.3155 16.384 87.4195 16.384C86.3422 16.384 85.4142 16.6453 84.6355 17.168C83.8568 17.6907 83.2595 18.5333 82.8435 19.696C82.4275 20.8587 82.2195 22.3947 82.2195 24.304C82.2195 27.184 82.6782 29.2693 83.5955 30.56C84.5235 31.84 85.7982 32.48 87.4195 32.48C88.3155 32.48 89.0835 32.2773 89.7235 31.872C90.3635 31.456 90.8808 30.912 91.2755 30.24C91.6702 29.5573 91.9422 28.8107 92.0915 28H96.9875C96.8488 29.0987 96.5822 30.1493 96.1875 31.152C95.7928 32.144 95.2328 33.0293 94.5075 33.808C93.7822 34.5867 92.8488 35.2 91.7075 35.648C90.5662 36.096 89.1848 36.32 87.5635 36.32ZM110.084 36.32C107.898 36.32 106.004 35.8453 104.404 34.896C102.815 33.936 101.583 32.576 100.708 30.816C99.8443 29.0453 99.4123 26.9333 99.4123 24.48C99.4123 22.016 99.8496 19.8933 100.724 18.112C101.61 16.3307 102.852 14.96 104.452 14C106.052 13.0293 107.93 12.544 110.084 12.544C112.228 12.544 114.095 13.024 115.684 13.984C117.274 14.944 118.5 16.3147 119.364 18.096C120.239 19.8773 120.676 22.0053 120.676 24.48C120.676 26.9227 120.244 29.0293 119.38 30.8C118.527 32.5707 117.306 33.936 115.716 34.896C114.127 35.8453 112.25 36.32 110.084 36.32ZM110.084 32.48C111.215 32.48 112.191 32.2133 113.012 31.68C113.844 31.136 114.484 30.2827 114.932 29.12C115.38 27.9467 115.604 26.4213 115.604 24.544C115.604 22.6133 115.375 21.0507 114.916 19.856C114.468 18.6613 113.828 17.7867 112.996 17.232C112.175 16.6667 111.204 16.384 110.084 16.384C108.964 16.384 107.988 16.6667 107.156 17.232C106.324 17.7867 105.679 18.6667 105.22 19.872C104.762 21.0667 104.532 22.624 104.532 24.544C104.532 26.432 104.762 27.9573 105.22 29.12C105.679 30.2827 106.324 31.136 107.156 31.68C107.988 32.2133 108.964 32.48 110.084 32.48ZM128.004 36L121.188 12.864H125.764L130.068 28.144L134.372 12.864H137.748L142.1 28.144L146.404 12.864H150.964L144.132 36H140.404L136.052 20.88L131.668 36H128.004ZM162.148 36.32C159.961 36.32 158.068 35.8453 156.468 34.896C154.879 33.936 153.647 32.576 152.772 30.816C151.908 29.0453 151.476 26.9333 151.476 24.48C151.476 22.016 151.913 19.8933 152.788 18.112C153.673 16.3307 154.916 14.96 156.516 14C158.116 13.0293 159.993 12.544 162.148 12.544C164.292 12.544 166.159 13.024 167.748 13.984C169.337 14.944 170.564 16.3147 171.428 18.096C172.303 19.8773 172.74 22.0053 172.74 24.48C172.74 26.9227 172.308 29.0293 171.444 30.8C170.591 32.5707 169.369 33.936 167.78 34.896C166.191 35.8453 164.313 36.32 162.148 36.32ZM162.148 32.48C163.279 32.48 164.255 32.2133 165.076 31.68C165.908 31.136 166.548 30.2827 166.996 29.12C167.444 27.9467 167.668 26.4213 167.668 24.544C167.668 22.6133 167.439 21.0507 166.98 19.856C166.532 18.6613 165.892 17.7867 165.06 17.232C164.239 16.6667 163.268 16.384 162.148 16.384C161.028 16.384 160.052 16.6667 159.22 17.232C158.388 17.7867 157.743 18.6667 157.284 19.872C156.825 21.0667 156.596 22.624 156.596 24.544C156.596 26.432 156.825 27.9573 157.284 29.12C157.743 30.2827 158.388 31.136 159.22 31.68C160.052 32.2133 161.028 32.48 162.148 32.48ZM176.236 36V12.864H185.996C187.841 12.864 189.35 13.1573 190.524 13.744C191.697 14.3307 192.561 15.1467 193.116 16.192C193.67 17.2267 193.948 18.4213 193.948 19.776C193.948 20.992 193.756 22.0213 193.372 22.864C192.998 23.696 192.502 24.3893 191.884 24.944C191.276 25.4987 190.609 25.952 189.884 26.304L194.188 36H189.34L185.58 27.088H180.892V36H176.236ZM180.892 23.488H185.164C186.412 23.488 187.398 23.152 188.124 22.48C188.86 21.808 189.228 20.944 189.228 19.888C189.228 18.8213 188.876 17.9787 188.172 17.36C187.468 16.7413 186.577 16.432 185.5 16.432H180.892V23.488ZM197.877 36V12.864H202.581V32.048H212.629V36H197.877ZM215.706 36V12.864C215.823 12.864 216.148 12.864 216.682 12.864C217.226 12.864 217.86 12.864 218.586 12.864C219.322 12.864 220.052 12.8693 220.778 12.88C221.514 12.88 222.127 12.8853 222.618 12.896C225.423 12.96 227.711 13.4613 229.482 14.4C231.252 15.3387 232.548 16.6507 233.37 18.336C234.202 20.0213 234.618 22.016 234.618 24.32C234.618 26.72 234.18 28.7947 233.306 30.544C232.431 32.2827 231.092 33.6267 229.29 34.576C227.498 35.5253 225.22 36 222.458 36H215.706ZM220.41 32.224H222.554C223.876 32.224 225.076 31.968 226.154 31.456C227.242 30.944 228.111 30.1067 228.762 28.944C229.412 27.7813 229.738 26.2293 229.738 24.288C229.738 22.4853 229.45 21.024 228.874 19.904C228.298 18.7733 227.476 17.9467 226.41 17.424C225.343 16.9013 224.079 16.64 222.618 16.64H220.41V32.224Z" fill="white"/>
</svg>
