<svg xmlns="http://www.w3.org/2000/svg" version="1.1" xmlns:xlink="http://www.w3.org/1999/xlink" xmlns:svgjs="http://svgjs.dev/svgjs" viewBox="0 0 800 800"><defs><linearGradient x1="50%" y1="0%" x2="50%" y2="100%" id="ssscribble-grad"><stop stop-color="hsl(206, 75%, 49%)" stop-opacity="1" offset="0%"></stop><stop stop-color="hsl(331, 90%, 56%)" stop-opacity="1" offset="100%"></stop></linearGradient></defs><g fill="none" stroke-width="1.5" stroke="url(#ssscribble-grad)" stroke-linecap="round"><path d="M673.56 594.42C666.5 627.28 798.84 643.47 971.99 636.94 1078.69 622.66 1048.14 577 906.99 505.95 729.19 450.43 604.12 419.37 574.81 458.08 639.58 577.57 750.68 759.24 852.11 926.79 917.41 979.61 918.25 881.75 866.12 693.68 774.15 588.14 667.72 673.41 567.84 908.74 469.7 1073.01 391.37 1000.19 332.02 761.12 277.23 646.05 234.7 803.74 201.84 1052.83 158.16 953.97 146.82 829.14 197.29 1064.48 240.22 957.47 292.52 726.06 333.86 574.5 335.33 602.84 287.32 757 178.95 898.25 34.45 941.99 -115.6 858.93 -214.59 710.37 -219.49 544.64 -123.89 424.82 29.8 360.54 146.87 340.24 158.71 346.31 39.34 352.29 -146.49 366.15 -285.49 359.97 -278.43 327.12 -129.19 294.26 56.94 236.28 158.2 160.45 118.25 92.5 -24.25 26.64 -172.84 -10.02 -249.52 -2.7 -208.43 62.98 -79.12 178.06 86.29 275.99 220.55 311.9 289.32 225.12 287.47 40.81 234.73 -152.31 165.37 -214.9 89.73 -97.59 40.22 104.34 21.8 187.3 22.59 41.47 46.08 -204.33 80.51 -285.34 121.16 -108.2 160.71 118.72 193.57 100.89 226.44 -148.17 251.04 -299.27 272.37 -171.57 299.91 80.18 336.2 171.75 392.36 31.6 467.73 -179.64 571.35 -235.48 697.63 -95.75 867.6 194.95 889.13 61.94 710.27 -74.16 615.19 -62.25 603.57 22.89 704.33 135.36 877.01 263.35 1038.22 368.8 1090.85 445.06 1002.28 513.58 822.8 561.55 673.56 594.42Q673.56 594.42 673.56 594.42" opacity="0.56"></path><path d="M639.56 348.07C627.5 378.58 739.48 383.46 900.93 367.84 1025.27 357.96 1039.94 342.97 945.43 345.36 786.68 386.08 635.7 476.78 546.53 621.07 538.93 774.13 599.72 899.11 690.16 928.48 817.8 764.73 820.92 668.05 726.37 970.78 645.01 1040.31 568.44 900.68 504.91 680.67 441 617.9 392.89 788.7 362.38 1018.83 326.13 944.21 343.27 726.07 382.28 996.03 397.49 1005.98 400.16 838.5 372.86 634.4 307.67 524.32 201.57 563.74 65.08 690.37 -65.34 828.61 -162.3 890.11 -186.48 861.83 -129.08 761.34 -5.47 631.33 130.9 511.72 203.05 402.3 171.01 326.24 34.9 275.67 -138.32 235.2 -256.49 203.53 -244.43 173.01 -108.71 142.5 67.05 114.59 181.87 97.5 179.28 90.52 72.29 111.07 -70.98 167.59 -184.64 234.33 -208.83 314.09 -141.66 367.58 -9.54 348.85 137.54 243.56 256.5 65.34 329.72 -101.29 348.03 -176.92 328 -98.64 277.8 73.67 224.87 213.81 184.81 181.53 140.97 -119.46 156.21 63.26 197.14 134.89 227.66 -95.21 266.4 -259.88 315.71 -185.39 369.18 46.37 439.66 203.41 528.89 156.3 621.83 -35.52 725.02 -185.23 822.25 -175.11 889.31 -16.52 914.8 179.6 881.57 303.39 802.61 314.05 691.7 232.89 591.35 126.87 555.95 29.59 607.51 -10.87 743.54 1.27 909.18 51.75 1033.54 122.24 1047.91 189.67 944.86 262.84 775.28 317.55 639.56 348.07Q639.56 348.07 639.56 348.07" opacity="0.62"></path><path d="M605.56 173.73C589.32 201.89 681.62 228.72 827.69 261 960.63 302.2 1012.63 364.39 967.26 457.2 845.64 564.67 696.81 691.87 572.15 809.96 500.25 875.71 494.01 867.03 536.89 769.98 614.84 636.31 693.54 525.04 752.46 521.34 793.09 650.47 801.82 852.01 785.81 994.31 753.15 969.99 709.98 792.98 666.39 610 619.03 596.25 579.25 774.05 551.08 984.83 522.91 1019.98 507.7 847.26 501.93 637.33 492.41 572.25 484.33 695.35 468.18 883.15 435.38 989.14 380.27 928.9 296.22 757.09 193.89 573.78 74.76 481.1 -40.1 498.95 -119.9 601.98 -147.05 719.92 -104.48 799.7 -9.15 830.1 114.41 800.26 215.39 735.38 240.12 645.01 172.09 556.56 28.27 484.67 -128.66 412.67 -226.66 361.88 -210.43 333.71 -87.97 305.54 75.58 301.32 198.59 320.19 228.6 338.96 161 376.17 38.5 417.74 -89.74 433.81 -163.63 417.29 -161.26 343.49 -88.12 220.31 30.68 61.94 158.25 -78.01 275 -132.81 355.72 -73.55 398.56 80.41 408.06 222.91 395.27 257.92 375.5 131.32 335.57 -146.69 319.03 120.44 352.55 168.89 380.72 -41.86 425.01 -214 483.94 -189.43 542.84 4.39 614.69 197.46 693.12 242.45 791.3 32.67 835.23 -49.94 735.25 192.98 601.89 351.51 591.9 238.65 790.38 139.57 933.52 95.58 1017.16 84.63 998.01 96.54 885.87 117.39 728.02 145.56 605.56 173.73Q605.56 173.73 605.56 173.73" opacity="0.96"></path><path d="M571.56 313.19C551.98 339.01 625.58 384.92 753.52 450.24 886.57 516.4 965.8 600.13 966.14 691.15 891.87 764.47 769.25 815.17 638.51 817.95 526.95 770.02 460.8 670.96 442.29 551.01 467.1 474.17 517 477.63 572.43 587.94 632.41 761.65 676.01 920.57 699.5 966.42 711.87 776.94 664.43 670.21 626.69 950.83 600.87 992.23 574.31 851.01 544.44 649.05 510.8 536.2 467.09 587.04 408.34 745.01 340.11 902.71 253.99 950.3 154.22 870.86 58.99 708 -27.97 546.44 -86.62 448.1 -101.95 431.98 -66.41 485.4 18.25 566.89 122.11 658.63 221.58 720.94 276.92 746.84 257.66 748.27 163.73 724.43 20.72 690.37 -117.17 649.02 -196.01 612.15 -176.43 586.33 -66.94 560.5 82.9 546.96 208.87 539.62 265.31 524.98 237.01 501.86 146.27 455.7 24.91 385.07 -76.01 280.25 -126.25 148.72 -118.57 27.43 -54.93 -63.07 41.92 -80.82 157.03 -16.34 264.17 114.59 350 250.57 416.13 303.16 456.95 232.45 479.95 55.84 489.04 -121.06 493.1 -186.64 500.13 -83.8 504.15 108.19 517.6 244.21 543.42 202.88 569.24 11.74 606.21 -161.96 650.88 -181.35 692.54 -37.48 735.45 160.31 771.11 277.2 792.85 250.3 794.55 114.54 768.21 -32.28 722.18 -115.73 652.11 -88.58 570.84 22.09 507.82 175.88 474.79 312 494 399.73 571.12 436.75 695.21 428.57 835.49 399.99 945.16 353.72 988.15 316.96 941.67 299.49 825.67 282.87 681.05 287.37 571.56 313.19Q571.56 313.19 571.56 313.19" opacity="0.52"></path><path d="M537.53 573.05C515.49 596.52 571.75 631.69 679.81 673.11 853.09 723.83 872.79 717.61 722.38 618.16 603.31 534.92 502.69 455.39 433.67 416.2 398.08 447.84 394.57 554.14 411.71 712.66 447.14 857.89 484.42 931.4 514.42 886.3 554.03 666.95 561.69 658.15 532.65 916.84 509.18 962.84 474.48 852.43 428.64 668.3 381.42 525.32 321.32 507.06 249.73 606.77 179.06 764.1 103.13 882.76 31.52 908.2 -21.79 835.83 -51.98 700.22 -47.15 557.75 -8.9 441.39 63.88 382.63 158.51 376.05 244.15 412.58 303.77 466.62 311.85 516.41 256.96 567.81 148.32 598.64 13.63 608.33 -103.48 614.09 -164.5 603.98 -142.46 580.51 -45.59 557.04 89.38 521.31 213.43 471.28 289.17 417.33 296.57 343.8 243.16 251.73 145.99 161.26 42.35 68.56 -38.23 -4.13 -84.07 -33.73 -81.47 -8.67 -38.21 76.91 37.01 188.62 127.55 296.41 217.75 344.34 307.14 294.46 381.62 154.75 439.61 -19.78 488.82 -136.69 525.58 -131.8 554.39 2.11 580.04 177.19 603.51 282.84 626.99 236.84 685.75 -1.48 669.1 295.81 597.97 148.79 543.95 14.71 487.1 -63.75 442.63 -64.62 430.12 5.32 455.34 118.54 525.61 237.96 630.63 351.73 755.32 434.1 869.7 485.44 940.33 514.86 946.31 527.47 879.65 536.06 764.67 538.9 634.44 549.57 537.56 573.04Q537.53 573.05 537.53 573.05" opacity="0.11"></path><path d="M503.83 592.77C479.79 613.89 519.97 624.43 607.2 622.03 719.3 615.97 819.69 591.48 883.37 547.23 901.2 500.68 868.12 443.31 796.86 390.34 699.74 366.93 597.36 380.92 505.64 447.62 428.46 557.69 375.51 695.92 344.77 822.65 332.86 889.77 334.08 871.51 340.4 765.31 354.11 622.2 364.02 503 365.57 476.33 368.22 565.81 359.8 730.98 338.68 882.73 317.56 931.64 284.72 850.35 242.23 691.58 200.85 537.02 152.51 463.41 102.18 493.5 59.25 606.88 23.24 741.1 2.6 837.81 0.78 869.58 23.4 824.77 72.9 728.61 136.93 603.55 214.25 486.72 289.38 398.03 338.64 337.65 352.78 310.62 319.46 305.01 240.3 316.87 127.89 331.61 7.64 339.03 -87.74 349.25 -132.2 345.33 -108.16 324.21 -23.23 303.09 96.14 265.76 213.84 215.71 301.02 168.45 337.26 115.28 320.93 66.8 258.43 35.8 172.83 28.02 87.44 55.83 12.67 111.94 -31.43 198.45 -41.82 295.82 -22.62 364.31 22.36 384.09 81.89 330.36 153.65 211.66 225.12 58.5 289.5 -70.37 353.52 -115.97 406.78 -54.43 448.58 91.96 489.11 242.59 519.97 319.63 541.09 270.78 567.41 38.6 562.55 -22.83 527.72 201.37 499.95 323.07 463.27 360.29 424.07 315.18 397.1 210.45 382.43 97.27 390.92 14.88 428.99 -24.13 498.16 -7.79 594.92 48.16 702.31 133.69 806.85 225.85 884.84 309.01 916.66 389.87 892.43 452.79 813.41 498.69 703.86 540.93 588.76 571.64 503.83 592.77Q503.83 592.77 503.83 592.77" opacity="0.72"></path><path d="M469.52 345.11C445.06 363.88 471.67 366.84 538.75 356.3 633.06 347.54 728.45 329.8 804.69 310.58 853.12 303.98 862.3 310.72 835.39 342.45 778.41 401.37 702.16 491.08 619.56 604.38 534.12 715.23 458.4 807.77 396.71 852.46 345.24 833.52 307.99 750.36 281.66 624.87 262.66 508.45 248.58 441.41 235.44 460.51 224.28 565.06 210.17 716.65 191.39 848.89 172.61 898.96 150.06 844.12 125.8 715.52 93.49 512.44 66.86 520.29 92.55 680.12 125.3 775.21 174.07 821.97 234.89 816.32 292.88 764.94 346.87 683.21 384.29 592.2 391.65 495.98 365.63 414.06 303.44 350.95 213.44 297.85 107.36 260.62 5.81 233.93 -68.51 211.2 -98.93 191.86 -74.47 173.08 -1.55 154.31 101.61 136.98 209.45 124.29 301.09 115.57 358.36 118.64 374.89 139.2 350.69 169.76 296.89 220.76 228.61 288.04 152.58 350.11 87.61 404.88 41.94 431.65 13.49 412.69 8.52 343.67 22.58 229.03 51.47 99.08 90.54 -16.62 132.97 -76.43 180.68 -56.69 225.15 40.87 262.61 182.57 300.82 303.93 330.16 354.96 348.94 304.89 367.72 172.65 375.05 24.86 372.26 -72.43 370.21 -84.29 359.91 -6.56 344.74 123.61 334.85 262.86 326.7 362.87 326.75 401.36 341.62 376.22 373.54 305.95 426.59 219.71 496.86 131.02 584.09 68.26 679.68 38.29 767.51 35.49 838.16 59.69 876.14 98.82 873.39 150.58 826.82 202.48 742.43 246.66 641.85 292.61 542.48 326.32 469.55 345.1Q469.52 345.11 469.52 345.11" opacity="0.46"></path><path d="M435.55 173.5C428.49 206.36 553.13 240.79 707.19 308.59 814.16 412.39 809.7 579.78 723.53 752.08 588.82 813.53 460.08 706.12 366.51 490.38 285.5 405.2 232.51 565.8 199.65 814.88 166.79 832.71 157.16 602.26 181.23 409.14 217.85 428.86 295.31 600.18 386.95 737.81 430.05 773.19 399.65 692.43 268.6 582.94 90.45 455.78 -47.5 369.34 -40.44 336.48 108.79 303.62 294.43 327.45 401.49 397.66 390.28 450.2 294.55 479.67 189.76 401.23 82.24 117.44 139.99 248.14 195.53 338.88 228.4 89.8 245.64 -57.47 265.83 51.79 308.63 291.61 391.59 433.87 526.34 415.49 674.2 286.26 804.78 170.16 840.09 123.31 757.11 112.46 584.79 140.64 435.55 173.5Q435.55 173.5 435.55 173.5" opacity="0.48"></path><path d="M401.53 315.96C385.34 344.13 471.47 417.08 599.2 527.73 722.44 631.4 779.52 733 767.36 763.43 703.59 695.35 613.99 534.78 532.28 386.29 446.7 391.67 386.01 570.07 357.84 780.84 329.68 815.99 336.7 645.91 373.47 443.02 406.36 350.71 452 411.15 478.86 533.49 454.11 660.66 367.15 714.5 223.26 706.4 74.89 665.52 -22.65 616.19 -6.46 588.02 115.97 559.85 278.66 555.52 401.57 547.59 448.94 506.88 419.63 409.08 353.88 245 265.42 85.74 201.18 -4.57 173.75 67.05 157.09 249.28 166.98 407.97 195.14 372.89 223.3 162.13 267.08 -4.89 332.54 10.34 408.78 179.46 516.97 369.92 642.35 474.93 745.03 481.41 804.23 423.77 777.53 368.92 675.28 307.08 524.01 287.79 401.56 315.95Q401.53 315.96 401.53 315.96" opacity="0.16"></path><path d="M367.53 574.96C345.49 598.43 397.12 643.43 489.81 688.82 601.2 711.79 685 694.22 724.84 612.2 731.61 501.12 704.35 380.4 664.14 329.65 613.82 401.73 571.08 575.42 547.61 746.84 524.14 792.84 522.16 684.06 531.8 511.01 531.34 362.64 521.96 309.04 484.43 337.17 413.82 423.12 305.13 507.55 176.53 556.95 66.63 597.22 5.49 602.16 27.53 578.69 124.4 555.22 258.46 505.55 378.89 424.61 461.41 334.54 490.56 213.48 479.96 96.76 437.01 37.86 390.76 66.55 361.22 197.69 330.28 353.54 324.64 452.82 348.11 406.89 371.57 235.48 421.92 71.27 493.53 16.37 563.75 84.3 646.64 229.92 720.36 371.77 761.74 484.57 757.5 538.77 692.2 556.47 588.98 551.76 464.44 551.48 367.56 574.95Q367.53 574.96 367.53 574.96" opacity="0.94"></path><path d="M333.67 591.24C309.06 610.02 332.36 608.84 388.24 582.26 468.86 547.32 545.86 479.89 602.86 392.69 648.76 326.61 668.89 292.49 668.8 326.41 661.65 430.38 645.65 580.53 626.87 712.79 608.09 762.91 588.31 708.58 562.92 589.66 530.47 448.05 481.04 336.73 410.52 276.59 328.91 261.26 232 277.69 137.61 298.35 67.97 328.99 37.06 340.25 61.67 321.47 134.68 302.69 237.18 255.66 340.21 192.48 431.42 139.28 494.5 93.54 528.59 84.26 539.32 119.79 535.62 211.19 530.92 339.03 520.21 444.19 520.91 490.91 539.69 440.79 558.46 308.53 593.54 165.99 636.8 75.78 674.04 55.63 707.04 109.67 720.93 200.36 711.45 312.17 668.28 408.91 590.84 476.39 501.57 535.51 406.68 572.46 333.67 591.24Q333.67 591.24 333.67 591.24" opacity="0.67"></path><path d="M299.53 342.3C283.34 370.47 357.24 310.95 439.98 249.98 530.15 288.85 564.48 468.07 536.31 678.84 508.14 713.99 422.82 549.08 295.73 378.95 176.07 250.69 79.34 201.36 95.53 173.19 217.98 145.02 378.84 143.35 490.16 234.7 563.94 367.91 598.81 509.99 626.98 474.84 655.14 264.07 671.28 107.68 634.41 105.73 560.01 203.62 421.98 314.13 299.53 342.3Q299.53 342.3 299.53 342.3" opacity="0.22"></path><path d="M265.56 173.32C270.88 210.88 381.2 359.64 343.65 644.83 306.09 639.62 134.88 376.98 129.56 339.42 306.37 301.87 506.61 503.62 544.17 508.83 581.72 223.64 442.37 135.77 265.56 173.32Q265.56 173.32 265.56 173.32" opacity="0.26"></path></g></svg>