<svg xmlns="http://www.w3.org/2000/svg" version="1.1" xmlns:xlink="http://www.w3.org/1999/xlink" xmlns:svgjs="http://svgjs.dev/svgjs" viewBox="0 0 800 800"><defs><filter id="bbburst-blur-1" x="-100%" y="-100%" width="400%" height="400%"><feGaussianBlur in="SourceGraphic" stdDeviation="1"></feGaussianBlur></filter><filter id="bbburst-blur-2" x="-100%" y="-100%" width="400%" height="400%"><feGaussianBlur in="SourceGraphic" stdDeviation="2"></feGaussianBlur></filter><filter id="bbburst-blur-3" x="-100%" y="-100%" width="400%" height="400%"><feGaussianBlur in="SourceGraphic" stdDeviation="4"></feGaussianBlur></filter><filter id="bbburst-blur-4" x="-100%" y="-100%" width="400%" height="400%"><feGaussianBlur in="SourceGraphic" stdDeviation="12"></feGaussianBlur></filter><symbol id="bbburst-shape-1" viewBox="0 0 194 167"><path d="m97 0 96.129 166.5H.871L97 0Z"></path></symbol><symbol id="bbburst-shape-4" viewBox="0 0 149 143"><path d="M71.647 2.781c.898-2.764 4.808-2.764 5.706 0l15.445 47.534a3 3 0 0 0 2.853 2.073h49.98c2.906 0 4.115 3.719 1.764 5.427L106.96 87.193a2.999 2.999 0 0 0-1.09 3.354l15.445 47.534c.898 2.764-2.266 5.062-4.617 3.354l-40.435-29.378a3 3 0 0 0-3.526 0l-40.435 29.378c-2.351 1.708-5.515-.59-4.617-3.354L43.13 90.547a3 3 0 0 0-1.09-3.354L1.605 57.815c-2.35-1.708-1.142-5.427 1.764-5.427h49.98a3 3 0 0 0 2.853-2.073L71.647 2.781Z"></path></symbol><symbol id="bbburst-shape-6" viewBox="0 0 133 116"><path d="M59.7487 10.2513c-13.6683-13.66839-35.8291-13.66839-49.4974 0-13.66839 13.6683-13.66839 35.8291 0 49.4974l49.4974-49.4974ZM66.5 66.5 41.7513 91.2487 66.5 115.997l24.7487-24.7483L66.5 66.5Zm56.249-6.7513c13.668-13.6683 13.668-35.8291 0-49.4974-13.669-13.66839-35.8294-13.66839-49.4977 0l49.4977 49.4974Zm-112.4977 0 31.5 31.5 49.4974-49.4974-31.5-31.5-49.4974 49.4974Zm80.9974 31.5 31.5003-31.5-49.4977-49.4974-31.5 31.5 49.4974 49.4974Z"></path></symbol><symbol id="bbburst-shape-8" viewBox="0 0 87 168"><path d="m12 12 31.2546 18.0749c16.4102 9.4902 20.014 31.6325 7.4603 45.8369L36.3296 92.1884c-12.5684 14.2206-8.9394 36.3916 7.5068 45.8636L75 156" stroke-width="14" stroke-linecap="round" stroke-linejoin="round"></path></symbol><symbol id="bbburst-shape-10" viewBox="0 0 145 145"><circle cx="72.5" cy="72.5" r="61.5" fill="none" stroke-width="22"></circle></symbol></defs><use xlink:href="#bbburst-shape-8" width="36.827087287334486" opacity="-0.07857637642560178" transform="matrix(1.717396775676859,-0.3362265826711634,0.3362265826711634,1.717396775676859,582.2327380768247,-618.7443071958348)" fill="none" stroke="#2c2891" filter="url(#bbburst-blur-4)"></use><use xlink:href="#bbburst-shape-6" width="16.773941091155443" opacity="0.7421774457784205" transform="matrix(0.9513822470830444,-0.3080126944384224,0.3080126944384224,0.9513822470830444,345.2109811493334,-65.28751749528408)" fill="#ff5c58" filter="url(#bbburst-blur-1)"></use><use xlink:href="#bbburst-shape-10" width="23.762275688255716" opacity="0.6765207987262187" transform="matrix(0.9689693544279435,0.2471808855463838,-0.2471808855463838,0.9689693544279435,462.511112452608,152.90452167015263)" fill="none" stroke="#ffa6d5" filter="url(#bbburst-blur-1)"></use><use xlink:href="#bbburst-shape-6" width="10.974064259451758" opacity="0.8785497915845517" transform="matrix(0.8776813922780478,-0.4792445864575496,0.4792445864575496,0.8776813922780478,257.1867798457057,41.399975724550075)" fill="#00a19d"></use><use xlink:href="#bbburst-shape-4" width="13.505334709941975" opacity="0.8945161390401656" transform="matrix(0.9241432490866974,0.38204614272032933,-0.38204614272032933,0.9241432490866974,577.0197541123862,64.19125842343323)" fill="#00a19d"></use><use xlink:href="#bbburst-shape-10" width="42.24159040031086" opacity="0.34934935631502884" transform="matrix(0.738913817761187,-0.673799947997614,0.673799947997614,0.738913817761187,-142.2117272607902,258.7897797638308)" fill="none" stroke="#2c2891" filter="url(#bbburst-blur-2)"></use><use xlink:href="#bbburst-shape-4" width="25.72293301551068" opacity="0.5451193877611594" transform="matrix(0.7653240769737594,-0.6436451329764432,0.6436451329764432,0.7653240769737594,282.76981188448326,241.3920017857311)" fill="#ffa6d5" filter="url(#bbburst-blur-2)"></use><use xlink:href="#bbburst-shape-10" width="25.509901373549898" opacity="0.479737621091922" transform="matrix(0.9941168535123007,0.108312887334808,-0.108312887334808,0.9941168535123007,269.7118848408603,-169.06274722798526)" fill="none" stroke="#2c2891" filter="url(#bbburst-blur-2)"></use><use xlink:href="#bbburst-shape-10" width="28.251243894602297" opacity="0.6005645208886624" transform="matrix(0.9988431761997615,-0.0480864779243825,0.0480864779243825,0.9988431761997615,360.3072283194834,-178.49182359110802)" fill="none" stroke="#ffa6d5" filter="url(#bbburst-blur-1)"></use><use xlink:href="#bbburst-shape-4" width="32.089838736674515" opacity="0.05431729123600704" transform="matrix(1.4054793335389375,1.04265422983602,-1.04265422983602,1.4054793335389375,555.7663900188213,-531.1790528548556)" fill="#00a19d" filter="url(#bbburst-blur-4)"></use><use xlink:href="#bbburst-shape-4" width="18.83056365672205" opacity="0.6480189283785556" transform="matrix(0.988462405428706,0.15146640899584446,-0.15146640899584446,0.988462405428706,590.2027862431173,79.2818687372851)" fill="#2c2891" filter="url(#bbburst-blur-1)"></use><use xlink:href="#bbburst-shape-6" width="28.73002390551629" opacity="0.5341039192636693" transform="matrix(0.7975944111518101,0.6031941273747593,-0.6031941273747593,0.7975944111518101,474.48509570615045,213.10081310332174)" fill="#2c2891" filter="url(#bbburst-blur-2)"></use><use xlink:href="#bbburst-shape-10" width="17.23337336330561" opacity="0.7539145969554479" transform="matrix(0.9667456254947671,0.2557398983082842,-0.2557398983082842,0.9667456254947671,439.7712477859428,107.66907646856617)" fill="none" stroke="#2c2891" filter="url(#bbburst-blur-1)"></use><use xlink:href="#bbburst-shape-10" width="38.478967320274606" opacity="0.07927620878785713" transform="matrix(1.736406992605864,0.21769418005417393,-0.21769418005417393,1.736406992605864,93.0817497426422,-502.8144779908111)" fill="none" stroke="#ffbd9b" filter="url(#bbburst-blur-4)"></use><use xlink:href="#bbburst-shape-4" width="47.45774555423338" opacity="0.23495326633589309" transform="matrix(0.9706801552440248,-0.7875785905009326,0.7875785905009326,0.9706801552440248,22.309831745582756,-311.5209073066396)" fill="#2c2891" filter="url(#bbburst-blur-3)"></use><use xlink:href="#bbburst-shape-6" width="14.358329868596131" opacity="0.9261521781683033" transform="matrix(0.8441291079987517,0.5361399528380922,-0.5361399528380922,0.8441291079987517,575.5296436770496,63.41389269257684)" fill="#00a19d"></use><use xlink:href="#bbburst-shape-6" width="20.60022525637879" opacity="0.7569013159386098" transform="matrix(0.7861984016235042,-0.6179741687843006,0.6179741687843006,0.7861984016235042,241.8762788102638,142.14879014409735)" fill="#ffbd9b" filter="url(#bbburst-blur-1)"></use><use xlink:href="#bbburst-shape-6" width="33.84082255822042" opacity="0.48768052502995607" transform="matrix(0.8020326945344931,-0.5972801326829318,0.5972801326829318,0.8020326945344931,-78.35322046525076,43.11052192877099)" fill="#00a19d" filter="url(#bbburst-blur-2)"></use><use xlink:href="#bbburst-shape-10" width="18.36854481537563" opacity="0.7904171075814134" transform="matrix(0.7119119441002775,-0.7022687404743025,0.7022687404743025,0.7119119441002775,113.1381043874527,215.9955273757716)" fill="none" stroke="#ffa6d5"></use><use xlink:href="#bbburst-shape-10" width="13.993358516872759" opacity="0.8358311657953506" transform="matrix(0.9641492581922665,-0.2653605244328974,0.2653605244328974,0.9641492581922665,218.7724214249247,44.261959023512304)" fill="none" stroke="#ffa6d5"></use><use xlink:href="#bbburst-shape-6" width="11.446296107200556" opacity="0.8399527640947746" transform="matrix(0.7175388048792494,0.6965185306167083,-0.6965185306167083,0.7175388048792494,722.2887004038796,55.11533229823675)" fill="#ff5c58"></use><use xlink:href="#bbburst-shape-10" width="38.026254190914656" opacity="0.08602281676892087" transform="matrix(1.4592410703301284,0.9659790363469496,-0.9659790363469496,1.4592410703301284,1119.675320780455,-399.0847734662407)" fill="none" stroke="#00a19d" filter="url(#bbburst-blur-4)"></use><use xlink:href="#bbburst-shape-1" width="23.240082681844246" opacity="0.5620760929364916" transform="matrix(0.8794991781895624,0.47590040508901066,-0.47590040508901066,0.8794991781895624,584.7962283175772,239.70709886255332)" fill="#2c2891" filter="url(#bbburst-blur-1)"></use><use xlink:href="#bbburst-shape-8" width="18.9024258922469" opacity="0.6464536230002771" transform="matrix(0.7872697453821894,0.616608747915453,-0.616608747915453,0.7872697453821894,763.6633453972788,-19.836963968019973)" fill="none" stroke="#2c2891" filter="url(#bbburst-blur-1)"></use><use xlink:href="#bbburst-shape-8" width="10.534056099766488" opacity="0.9633333595862842" transform="matrix(0.9979449080290709,0.06407776945906579,-0.06407776945906579,0.9979449080290709,422.5813942933346,16.836322250797707)" fill="none" stroke="#ffa6d5"></use><use xlink:href="#bbburst-shape-4" width="46.31234499315604" opacity="0.1837754772343313" transform="matrix(1.2111161853428074,-0.3093502636182594,0.3093502636182594,1.2111161853428074,-21.473498128802902,172.10923255622203)" fill="#ffa6d5" filter="url(#bbburst-blur-3)"></use><use xlink:href="#bbburst-shape-1" width="37.48779540128478" opacity="0.3020222419628379" transform="matrix(1.0479028703079574,-0.6814686892296258,0.6814686892296258,1.0479028703079574,237.17671979845932,279.87105630415846)" fill="#ffa6d5" filter="url(#bbburst-blur-3)"></use><use xlink:href="#bbburst-shape-8" width="55.315994092641525" opacity="-0.07255056863403797" transform="matrix(1.7487688823304288,-0.06563075645444995,0.06563075645444995,1.7487688823304288,-21.808015545247656,37.582422893026546)" fill="none" stroke="#ff5c58" filter="url(#bbburst-blur-4)"></use><use xlink:href="#bbburst-shape-1" width="21.481136516885094" opacity="0.6972919434275717" transform="matrix(0.7641954306281897,-0.6449847624610955,0.6449847624610955,0.7641954306281897,15.256510376281994,34.19480430202054)" fill="#2c2891" filter="url(#bbburst-blur-1)"></use><use xlink:href="#bbburst-shape-10" width="28.52841270395174" opacity="0.5616955794930905" transform="matrix(0.8658908862589472,0.5002329188425079,-0.5002329188425079,0.8658908862589472,778.7601523924268,95.64544974869455)" fill="none" stroke="#ffa6d5" filter="url(#bbburst-blur-1)"></use><use xlink:href="#bbburst-shape-6" width="26.006459358014773" opacity="0.6324943651628485" transform="matrix(0.905513589846338,0.4243172617318295,-0.4243172617318295,0.905513589846338,470.4692503188792,172.6214341101316)" fill="#00a19d" filter="url(#bbburst-blur-1)"></use><use xlink:href="#bbburst-shape-10" width="37.08177000383381" opacity="0.1590389362977721" transform="matrix(1.0441244328310204,-0.6872438932179026,0.6872438932179026,1.0441244328310204,-25.85254449644833,-359.7225892832636)" fill="none" stroke="#ff5c58" filter="url(#bbburst-blur-3)"></use><use xlink:href="#bbburst-shape-8" width="29.188811650409107" opacity="0.5023819947244823" transform="matrix(0.8724278497065744,0.4887429253261502,-0.4887429253261502,0.8724278497065744,488.25674368421903,-159.11158329561542)" fill="none" stroke="#2c2891" filter="url(#bbburst-blur-2)"></use><use xlink:href="#bbburst-shape-4" width="11.203051387399304" opacity="0.9115882628593667" transform="matrix(0.9183003321043832,-0.3958844529114266,0.3958844529114266,0.9183003321043832,262.29219191933134,4.60896773335935)" fill="#00a19d"></use><use xlink:href="#bbburst-shape-10" width="30.959457248404746" opacity="0.3919570838679284" transform="matrix(0.9306802791583785,0.36583359329848697,-0.36583359329848697,0.9306802791583785,799.8490186460656,-33.479525479244614)" fill="none" stroke="#2c2891" filter="url(#bbburst-blur-2)"></use><use xlink:href="#bbburst-shape-8" width="26.285820782308154" opacity="0.17179198955435215" transform="matrix(1.03845901442975,-0.6957750177676634,0.6957750177676634,1.03845901442975,21.022620379561204,356.1532458599099)" fill="none" stroke="#00a19d" filter="url(#bbburst-blur-3)"></use><use xlink:href="#bbburst-shape-4" width="19.389663183660595" opacity="0.7984067795580866" transform="matrix(0.9307256194249806,-0.3657182267073741,0.3657182267073741,0.9307256194249806,294.74026141828017,106.93626908350745)" fill="#ffa6d5"></use><use xlink:href="#bbburst-shape-6" width="15.697117343222247" opacity="0.7542000688169412" transform="matrix(0.8490562183954938,-0.5283025061495956,0.5283025061495956,0.8490562183954938,135.4930473675762,-35.826582122222305)" fill="#00a19d" filter="url(#bbburst-blur-1)"></use><use xlink:href="#bbburst-shape-10" width="34.12500461247249" opacity="0.38955314617734615" transform="matrix(0.7350027996389954,-0.6780640711045224,0.6780640711045224,0.7350027996389954,389.3620196840824,146.91856480385945)" fill="none" stroke="#ffbd9b" filter="url(#bbburst-blur-2)"></use><use xlink:href="#bbburst-shape-10" width="13.737668995400947" opacity="0.8743319354876835" transform="matrix(0.9821428334004969,-0.1881367981019233,0.1881367981019233,0.9821428334004969,322.66569798086454,64.79290381397641)" fill="none" stroke="#00a19d"></use><use xlink:href="#bbburst-shape-6" width="11.045307725420285" opacity="0.8899277482628649" transform="matrix(0.7238099843919665,0.6899993525319434,-0.6899993525319434,0.7238099843919665,675.3160129407938,57.24392352538206)" fill="#ffa6d5"></use><use xlink:href="#bbburst-shape-10" width="29.601113317231547" opacity="0.39037661938150336" transform="matrix(0.7609338423914604,0.6488294749033586,-0.6488294749033586,0.7609338423914604,470.5785394970219,295.02854828212946)" fill="none" stroke="#ffbd9b" filter="url(#bbburst-blur-2)"></use><use xlink:href="#bbburst-shape-10" width="34.03506080025352" opacity="0.058986358217729684" transform="matrix(1.293408459893628,1.1788106531057452,-1.1788106531057452,1.293408459893628,619.9969195384645,218.4373366790752)" fill="none" stroke="#2c2891" filter="url(#bbburst-blur-4)"></use><use xlink:href="#bbburst-shape-10" width="37.56839147341593" opacity="0.5179919125062442" transform="matrix(0.9208571741354977,-0.3899000703298033,0.3899000703298033,0.9208571741354977,319.44320157739173,235.0773721320449)" fill="none" stroke="#ffbd9b" filter="url(#bbburst-blur-2)"></use><use xlink:href="#bbburst-shape-1" width="11.228297407975516" opacity="0.850693897442486" transform="matrix(0.886291544389675,-0.4631277343707293,0.4631277343707293,0.886291544389675,172.04458315749352,-7.493693931701955)" fill="#ffa6d5"></use><use xlink:href="#bbburst-shape-6" width="12.920659751807973" opacity="0.8343425470966104" transform="matrix(0.9417875900131046,-0.33620846999638243,0.33620846999638243,0.9417875900131046,215.8793560326102,85.95685654171376)" fill="#ff5c58"></use><use xlink:href="#bbburst-shape-6" width="30.72801274164619" opacity="0.09535630733237432" transform="matrix(1.7160325149787452,-0.3431215637871249,0.3431215637871249,1.7160325149787452,422.14733432188046,81.09522922312033)" fill="#2c2891" filter="url(#bbburst-blur-4)"></use><use xlink:href="#bbburst-shape-4" width="34.724510138136836" opacity="0.17355939460970626" transform="matrix(1.0486663705568429,0.6802932038930998,-0.6802932038930998,1.0486663705568429,723.8136817855361,-396.51033344159924)" fill="#00a19d" filter="url(#bbburst-blur-3)"></use><use xlink:href="#bbburst-shape-10" width="30.510257928805935" opacity="0.353531719392677" transform="matrix(0.9572645763697765,-0.28921364218790285,0.28921364218790285,0.9572645763697765,475.324101430424,-184.29091438676525)" fill="none" stroke="#ff5c58" filter="url(#bbburst-blur-2)"></use><use xlink:href="#bbburst-shape-4" width="39.9152774713221" opacity="0.37783849137236514" transform="matrix(0.9485839622621576,0.3165256175083236,-0.3165256175083236,0.9485839622621576,691.6503364392876,225.3166282788419)" fill="#ffbd9b" filter="url(#bbburst-blur-2)"></use><use xlink:href="#bbburst-shape-8" width="29.343866309543436" opacity="0.40481113369854604" transform="matrix(0.8617908941188676,-0.5072636935695307,0.5072636935695307,0.8617908941188676,-39.81909347835068,-83.6937191392226)" fill="none" stroke="#2c2891" filter="url(#bbburst-blur-2)"></use><use xlink:href="#bbburst-shape-4" width="39.42633331592418" opacity="0.28854095079400355" transform="matrix(1.2256982985097504,0.2452828592264501,-0.2452828592264501,1.2256982985097504,759.2011915272892,-240.42335318084216)" fill="#00a19d" filter="url(#bbburst-blur-3)"></use><use xlink:href="#bbburst-shape-10" width="39.04425163101488" opacity="0.22152112021060577" transform="matrix(0.9676929976233971,0.7912460188529506,-0.7912460188529506,0.9676929976233971,1028.935106456066,111.24155651613006)" fill="none" stroke="#00a19d" filter="url(#bbburst-blur-3)"></use><use xlink:href="#bbburst-shape-4" width="41.76960635115846" opacity="0.2585905883439078" transform="matrix(1.2342685932965516,-0.19768925009153138,0.19768925009153138,1.2342685932965516,-5.3907199022155226,-234.39224681193716)" fill="#2c2891" filter="url(#bbburst-blur-3)"></use><use xlink:href="#bbburst-shape-8" width="25.407070401397267" opacity="0.6139863826107723" transform="matrix(0.9227643738072597,0.3853646460588929,-0.3853646460588929,0.9227643738072597,705.9058488309529,-32.71523362523044)" fill="none" stroke="#ff5c58" filter="url(#bbburst-blur-1)"></use><use xlink:href="#bbburst-shape-4" width="27.953710930954372" opacity="0.6376141804159506" transform="matrix(0.9996127412706887,-0.02782745926776575,0.02782745926776575,0.9996127412706887,268.0778141217312,-122.6476759258353)" fill="#ffa6d5" filter="url(#bbburst-blur-1)"></use><use xlink:href="#bbburst-shape-10" width="24.884626387624976" opacity="0.6773065995722645" transform="matrix(0.9895799022951204,-0.14398478035396695,0.14398478035396695,0.9895799022951204,419.9058058137686,120.06594815553461)" fill="none" stroke="#ff5c58" filter="url(#bbburst-blur-1)"></use><use xlink:href="#bbburst-shape-6" width="28.003035656040215" opacity="0.5025243000768815" transform="matrix(0.9591068463868374,-0.28304426723375864,0.28304426723375864,0.9591068463868374,190.26792315477564,228.19535849334744)" fill="#2c2891" filter="url(#bbburst-blur-2)"></use><use xlink:href="#bbburst-shape-6" width="37.048283373738485" opacity="0.05522940027939327" transform="matrix(1.3634255062688703,1.0970737845995022,-1.0970737845995022,1.3634255062688703,1042.0253298818523,-524.2435318851385)" fill="#ffa6d5" filter="url(#bbburst-blur-4)"></use><use xlink:href="#bbburst-shape-10" width="42.65779422291994" opacity="0.2605643598901525" transform="matrix(1.0222587394604061,0.7193657411892935,-0.7193657411892935,1.0222587394604061,507.77061454494077,268.50147070953926)" fill="none" stroke="#00a19d" filter="url(#bbburst-blur-3)"></use><use xlink:href="#bbburst-shape-1" width="19.408059828071686" opacity="0.7228433986628349" transform="matrix(0.9837420534056198,-0.17958722772317262,0.17958722772317262,0.9837420534056198,325.2569623725317,-116.27342575900559)" fill="#ffa6d5" filter="url(#bbburst-blur-1)"></use><use xlink:href="#bbburst-shape-4" width="15.608287913934701" opacity="0.73320508287736" transform="matrix(0.771579752189969,0.6361326009649765,-0.6361326009649765,0.771579752189969,760.3576347387768,43.00511429649151)" fill="#2c2891" filter="url(#bbburst-blur-1)"></use><use xlink:href="#bbburst-shape-8" width="38.43380654073884" opacity="0.15499279798543375" transform="matrix(1.1988967527277359,-0.3537606200510315,0.3537606200510315,1.1988967527277359,512.7851565412058,-332.917085193322)" fill="none" stroke="#00a19d" filter="url(#bbburst-blur-3)"></use><use xlink:href="#bbburst-shape-4" width="26.90933646198188" opacity="0.33824518547602145" transform="matrix(0.9785031874262484,-0.20623169542209596,0.20623169542209596,0.9785031874262484,10.143336841182332,-34.67807261920518)" fill="#ffa6d5" filter="url(#bbburst-blur-2)"></use><use xlink:href="#bbburst-shape-1" width="9.882868279068903" opacity="0.9364489853703976" transform="matrix(0.9643152431096776,-0.2647567032320868,0.2647567032320868,0.9643152431096776,317.78852784068886,18.470838748437927)" fill="#00a19d"></use><use xlink:href="#bbburst-shape-10" width="25.451542960176596" opacity="0.6825558583947866" transform="matrix(0.885392024962903,0.4648450947703871,-0.4648450947703871,0.885392024962903,615.1456771888608,176.92354389047586)" fill="none" stroke="#00a19d" filter="url(#bbburst-blur-1)"></use><use xlink:href="#bbburst-shape-6" width="25.47900413592125" opacity="0.17689422230170537" transform="matrix(1.2151501094245554,-0.29310443798327457,0.29310443798327457,1.2151501094245554,-98.83925886489793,-138.47374964515888)" fill="#00a19d" filter="url(#bbburst-blur-3)"></use><use xlink:href="#bbburst-shape-1" width="23.234268825816038" opacity="0.7303901322629904" transform="matrix(0.9651345867560467,-0.26175413931251396,0.26175413931251396,0.9651345867560467,166.62371658264362,47.35294681949841)" fill="#ffa6d5" filter="url(#bbburst-blur-1)"></use><use xlink:href="#bbburst-shape-4" width="38.134460243711466" opacity="0.35757749890251334" transform="matrix(0.9969306560607897,0.07828963536895166,-0.07828963536895166,0.9969306560607897,460.67002891575845,-285.2460829026554)" fill="#2c2891" filter="url(#bbburst-blur-2)"></use><use xlink:href="#bbburst-shape-10" width="16.779033173247324" opacity="0.8189589014960744" transform="matrix(0.9779075402526998,-0.20903789780064877,0.20903789780064877,0.9779075402526998,300.3246292359778,-70.49812015004261)" fill="none" stroke="#2c2891"></use><use xlink:href="#bbburst-shape-10" width="45.330169592442864" opacity="0.09906952349635745" transform="matrix(1.746939847524307,0.10344645538514691,-0.10344645538514691,1.746939847524307,46.604105213329085,-105.64277621836948)" fill="none" stroke="#ff5c58" filter="url(#bbburst-blur-4)"></use><use xlink:href="#bbburst-shape-10" width="25.829490354694666" opacity="0.5416499746554615" transform="matrix(0.9999348859491091,-0.011411567023957292,0.011411567023957292,0.9999348859491091,516.659124287075,-156.5085767981723)" fill="none" stroke="#ff5c58" filter="url(#bbburst-blur-2)"></use><use xlink:href="#bbburst-shape-4" width="28.21058752030737" opacity="0.5438796438550644" transform="matrix(0.9712498759759935,-0.2380623414499176,0.2380623414499176,0.9712498759759935,495.61848778168127,-2.2585532666342374)" fill="#2c2891" filter="url(#bbburst-blur-2)"></use><use xlink:href="#bbburst-shape-10" width="29.20939351296799" opacity="0.42113823155686136" transform="matrix(0.9014856005009702,-0.4328090942776102,0.4328090942776102,0.9014856005009702,336.3106520518886,-184.10591159277183)" fill="none" stroke="#ffa6d5" filter="url(#bbburst-blur-2)"></use><use xlink:href="#bbburst-shape-4" width="15.92228868509934" opacity="0.7837180168207498" transform="matrix(0.8441112213328814,-0.5361681135799771,0.5361681135799771,0.8441112213328814,83.5657557725543,46.65926498839042)" fill="#00a19d"></use><use xlink:href="#bbburst-shape-4" width="31.491580952519747" opacity="0.4806479949448105" transform="matrix(0.9436902287512549,-0.33083039787692464,0.33083039787692464,0.9436902287512549,456.68971366557895,-86.50268223764084)" fill="#ffa6d5" filter="url(#bbburst-blur-2)"></use><use xlink:href="#bbburst-shape-8" width="13.63625140003458" opacity="0.815391696323014" transform="matrix(0.9915963525313307,-0.12937029661618987,0.12937029661618987,0.9915963525313307,416.90598499451806,-30.59653893756513)" fill="none" stroke="#ff5c58"></use><use xlink:href="#bbburst-shape-4" width="21.063502947119424" opacity="0.6518619728059978" transform="matrix(0.9949332308942883,-0.1005378837167998,0.1005378837167998,0.9949332308942883,414.11485561126045,-139.52478650577837)" fill="#00a19d" filter="url(#bbburst-blur-1)"></use><use xlink:href="#bbburst-shape-6" width="18.41431798445834" opacity="0.6482741712748992" transform="matrix(0.9999459164143402,-0.0104002041463385,0.0104002041463385,0.9999459164143402,333.5926239805349,-149.0071077781435)" fill="#2c2891" filter="url(#bbburst-blur-1)"></use><use xlink:href="#bbburst-shape-8" width="46.28589323174707" opacity="0.19876581341225863" transform="matrix(1.1390092460655823,-0.5149348865411176,0.5149348865411176,1.1390092460655823,-185.48477077200388,29.009425088032174)" fill="none" stroke="#00a19d" filter="url(#bbburst-blur-3)"></use><use xlink:href="#bbburst-shape-6" width="38.02928206714218" opacity="0.43692919877689196" transform="matrix(0.8238554874419889,-0.5667999080907855,0.5667999080907855,0.8238554874419889,384.25605728299684,194.5325164887397)" fill="#00a19d" filter="url(#bbburst-blur-2)"></use><use xlink:href="#bbburst-shape-8" width="28.832239292493767" opacity="0.23029104844936643" transform="matrix(1.236340777428819,-0.18428641313646243,0.18428641313646243,1.236340777428819,463.72588518106613,-401.49986863086673)" fill="none" stroke="#ff5c58" filter="url(#bbburst-blur-3)"></use><use xlink:href="#bbburst-shape-4" width="34.84020262730307" opacity="0.3998219350458966" transform="matrix(0.9692087283628095,-0.2462406157914366,0.2462406157914366,0.9692087283628095,18.186459623161795,60.82154751588587)" fill="#ffa6d5" filter="url(#bbburst-blur-2)"></use><use xlink:href="#bbburst-shape-6" width="31.608621539687185" opacity="0.3627127442921536" transform="matrix(0.9845399709713814,0.17516005697553197,-0.17516005697553197,0.9845399709713814,402.7290815777174,285.4829356318403)" fill="#00a19d" filter="url(#bbburst-blur-2)"></use><use xlink:href="#bbburst-shape-6" width="10.306739351648755" opacity="0.9700284006167065" transform="matrix(0.9359926251951697,-0.3520196096530059,0.3520196096530059,0.9359926251951697,253.14865108960137,13.985220786899106)" fill="#ffa6d5"></use><use xlink:href="#bbburst-shape-4" width="25.60052758541402" opacity="0.5617337343265516" transform="matrix(0.7082457740798729,0.7059659506647623,-0.7059659506647623,0.7082457740798729,493.1407870338721,187.91120943867963)" fill="#00a19d" filter="url(#bbburst-blur-1)"></use><use xlink:href="#bbburst-shape-4" width="27.957255005995332" opacity="0.6707796124977086" transform="matrix(0.7586458661412869,-0.6515032231591311,0.6515032231591311,0.7586458661412869,-18.394597506102457,88.9684706693323)" fill="#2c2891" filter="url(#bbburst-blur-1)"></use><use xlink:href="#bbburst-shape-6" width="28.17750845219911" opacity="0.6852407562680056" transform="matrix(0.9723117015330385,0.23368772980609706,-0.23368772980609706,0.9723117015330385,621.2944837542982,13.69768690119713)" fill="#00a19d" filter="url(#bbburst-blur-1)"></use><use xlink:href="#bbburst-shape-6" width="36.672722982167784" opacity="0.07050356988670814" transform="matrix(1.2836642599314059,-1.189414169990738,1.189414169990738,1.2836642599314059,258.7404100067402,124.5794510941854)" fill="#00a19d" filter="url(#bbburst-blur-4)"></use><use xlink:href="#bbburst-shape-4" width="40.35438327674356" opacity="0.40574510723634927" transform="matrix(0.9092567572299325,0.41623568976207176,-0.41623568976207176,0.9092567572299325,584.6281923513087,292.84474552644224)" fill="#ffa6d5" filter="url(#bbburst-blur-2)"></use><use xlink:href="#bbburst-shape-10" width="11.193696569924601" opacity="0.9097157581165547" transform="matrix(0.9533114652139488,-0.3019888247793849,0.3019888247793849,0.9533114652139488,251.10541362290218,54.01748472085518)" fill="none" stroke="#ffbd9b"></use><use xlink:href="#bbburst-shape-8" width="15.449749944014261" opacity="0.791423500020513" transform="matrix(0.844195383519843,-0.5360355906502713,0.5360355906502713,0.844195383519843,272.8676199660174,69.7126751500831)" fill="none" stroke="#ffa6d5"></use><use xlink:href="#bbburst-shape-8" width="12.184089628398938" opacity="0.9157061458323218" transform="matrix(0.985264506238073,0.17103757700413724,-0.17103757700413724,0.985264506238073,435.98136951199365,-22.355059802661174)" fill="none" stroke="#00a19d"></use><use xlink:href="#bbburst-shape-8" width="17.950686839901365" opacity="0.7908690468777315" transform="matrix(0.8503940278904418,0.5261463649292566,-0.5261463649292566,0.8503940278904418,635.7813846271885,-33.0300050397031)" fill="none" stroke="#00a19d"></use><use xlink:href="#bbburst-shape-6" width="14.093583683122656" opacity="0.8495272383512489" transform="matrix(0.9896101129059915,-0.1437769954971609,0.1437769954971609,0.9896101129059915,397.09626092294553,33.326752590385524)" fill="#2c2891"></use><use xlink:href="#bbburst-shape-6" width="24.728020379583427" opacity="0.5757729581769186" transform="matrix(0.7165598207698255,-0.6975256434413831,0.6975256434413831,0.7165598207698255,-59.46791544888279,38.34845695569197)" fill="#00a19d" filter="url(#bbburst-blur-1)"></use><use xlink:href="#bbburst-shape-6" width="25.420287990711284" opacity="0.5709842188438374" transform="matrix(0.8319204416100214,0.5548949259376833,-0.5548949259376833,0.8319204416100214,419.26369376939743,79.17510112554982)" fill="#ffa6d5" filter="url(#bbburst-blur-1)"></use><use xlink:href="#bbburst-shape-8" width="41.36934173305783" opacity="-0.0759733062220751" transform="matrix(1.7120629377877996,-0.3624092949324133,0.3624092949324133,1.7120629377877996,559.929519488295,67.09730152940699)" fill="none" stroke="#2c2891" filter="url(#bbburst-blur-4)"></use><use xlink:href="#bbburst-shape-6" width="20.504621198072073" opacity="0.7027054786856423" transform="matrix(0.8938003702534808,-0.4484650467257629,0.4484650467257629,0.8938003702534808,104.20701727606436,127.05651520550884)" fill="#ffa6d5" filter="url(#bbburst-blur-1)"></use><use xlink:href="#bbburst-shape-10" width="14.867036231678988" opacity="0.8622828897746255" transform="matrix(0.7190679053234008,0.6949398157637945,-0.6949398157637945,0.7190679053234008,613.1563738819023,89.78816580583515)" fill="none" stroke="#ffbd9b"></use><use xlink:href="#bbburst-shape-1" width="28.42529630894174" opacity="0.5262679012540639" transform="matrix(0.8875989391373784,0.4606171113215405,-0.4606171113215405,0.8875989391373784,621.9895672959815,-168.69579233248442)" fill="#2c2891" filter="url(#bbburst-blur-2)"></use><use xlink:href="#bbburst-shape-8" width="38.67888598465858" opacity="0.2669676627168033" transform="matrix(1.0506755856849717,0.6771859520438546,-0.6771859520438546,1.0506755856849717,920.335356237369,156.4467549577496)" fill="none" stroke="#ffa6d5" filter="url(#bbburst-blur-3)"></use><use xlink:href="#bbburst-shape-10" width="15.947828022181959" opacity="0.7779826420375398" transform="matrix(0.9985841858516243,-0.053194208021632196,0.053194208021632196,0.9985841858516243,296.1513896256832,-65.45625276741293)" fill="none" stroke="#2c2891"></use><use xlink:href="#bbburst-shape-4" width="29.83883861284238" opacity="0.4369545241304238" transform="matrix(0.8997118171079033,-0.436484416854021,0.436484416854021,0.8997118171079033,173.76068515015388,-203.81727937930003)" fill="#ffa6d5" filter="url(#bbburst-blur-2)"></use><use xlink:href="#bbburst-shape-10" width="40.50818746593288" opacity="0.19645156403825614" transform="matrix(1.180287064594758,-0.41160957854536057,0.41160957854536057,1.180287064594758,-48.78165348658081,-314.83871626727444)" fill="none" stroke="#2c2891" filter="url(#bbburst-blur-3)"></use><use xlink:href="#bbburst-shape-1" width="44.845315465370476" opacity="0.1435288583199451" transform="matrix(1.1980488960360758,-0.35662142771675953,0.35662142771675953,1.1980488960360758,485.13757808052344,218.16683637330095)" fill="#2c2891" filter="url(#bbburst-blur-3)"></use><use xlink:href="#bbburst-shape-4" width="49.44940861411272" opacity="-0.07454563162930916" transform="matrix(1.2583839160983372,1.2161290719759204,-1.2161290719759204,1.2583839160983372,506.5057584630546,-468.2837595732772)" fill="#00a19d" filter="url(#bbburst-blur-4)"></use><use xlink:href="#bbburst-shape-4" width="35.85661317390273" opacity="0.19458486820346566" transform="matrix(1.2060127122241269,-0.32868425267086543,0.32868425267086543,1.2060127122241269,602.8466411031467,-144.83409791917728)" fill="#00a19d" filter="url(#bbburst-blur-3)"></use><use xlink:href="#bbburst-shape-8" width="28.21262906505102" opacity="0.1911493819653669" transform="matrix(1.242415618656685,0.13748974695564292,-0.13748974695564292,1.242415618656685,799.6691054600792,-62.91573303293728)" fill="none" stroke="#00a19d" filter="url(#bbburst-blur-3)"></use><use xlink:href="#bbburst-shape-4" width="31.60341023620464" opacity="0.32070274296622614" transform="matrix(1.1988791565810388,-0.3538202480293304,0.3538202480293304,1.1988791565810388,84.26791197813392,-337.239544075214)" fill="#2c2891" filter="url(#bbburst-blur-3)"></use><use xlink:href="#bbburst-shape-6" width="36.38605063019197" opacity="0.20123439633810059" transform="matrix(0.9304180182635253,0.8347588342093627,-0.8347588342093627,0.9304180182635253,760.9695996741834,369.3884742075179)" fill="#ffbd9b" filter="url(#bbburst-blur-3)"></use></svg>