<svg width="238" height="190" viewBox="0 0 238 190" fill="none" xmlns="http://www.w3.org/2000/svg">
<path d="M238 118.643H121.713L234.037 88.5455L233.852 87.8553L121.528 117.953L222.235 59.8094L221.878 59.1906L121.171 117.334L203.397 35.1074L202.893 34.6028L120.666 116.829L178.809 16.1221L178.191 15.7651L120.047 116.472L150.145 4.14834L149.454 3.9627L119.357 116.287V0H118.643V116.287L88.5455 3.9627L87.8553 4.14834L117.953 116.472L59.8094 15.7651L59.1906 16.1221L117.334 116.829L35.1074 34.6028L34.6028 35.1074L116.829 117.334L16.1221 59.1906L15.7651 59.8094L116.472 117.953L4.14834 87.8553L3.9627 88.5455L116.287 118.643H0V119.357H116.287L3.9627 149.454L4.14834 150.145L116.472 120.047L15.7651 178.191L16.1221 178.809L116.829 120.666L34.6028 202.893L35.1074 203.397L117.334 121.171L59.1906 221.878L59.8094 222.235L117.953 121.528L87.8553 233.852L88.5455 234.037L118.643 121.713V238H119.357V121.713L149.454 234.037L150.145 233.852L120.047 121.528L178.191 222.235L178.809 221.878L120.666 121.171L202.893 203.397L203.397 202.893L121.171 120.666L221.878 178.809L222.235 178.191L121.528 120.047L233.852 150.145L234.037 149.454L121.713 119.357H238V118.643Z" fill="#D1D5DB"/>
</svg>
